<?xml version="1.0" encoding="UTF-8"?>
<svg id="Layer_1" data-name="Layer 1" xmlns="http://www.w3.org/2000/svg" viewBox="0 0 1440.48 296.78">
  <defs>
    <style>
      .cls-1 {
        fill: #fff;
      }
    </style>
  </defs>
  <path class="cls-1" d="M305.18,173.21c-4.23,17.62-13.23,34.18-28.22,44.84-18.49,13.17-43.4,14.69-64.93,19.64-26.48,6.09-51.24,16.75-74.01,31.45-8.86,5.87-22.28,14.78-37.91,25.48-1.22.73-2.44,1.47-3.66,2.18-1.81-15.38-1.17-30.63,1.32-45.58,17.24-103.75,123.86-192.41,125.59-193.87-30.5,9.18-56.26,32.37-78.37,54.3-14.4,14.29-26.58,31.99-45.81,40.19-16.92,7.2-35.75,6.26-52.99.64-3.24-1.07-47.37-23.4-46.15-24.62C131.64-4.07,352.91,1.57,352.91,1.57c-110.31,73.87-157.87,133.15-178.31,169.08-.02.04-.05.1-.07.14-.02.04-.07.1-.09.15-.09.19-.21.37-.3.54-.12.21-.26.48-.42.77-4.2,7.55-7.2,14.02-9.3,19.31,40.79-30.81,89.1-57.46,143.86-70.58,1.68-.38-2.31,48.91-3.1,52.23Z"/>
  <path class="cls-1" d="M429.65,220.85c-69.05,0-99.96-50.33-99.96-100.22,0-26.72,8.79-51.63,24.76-70.13,18.17-21.06,44.18-32.2,75.2-32.2,28.55,0,53.12,9.59,71.05,27.72,18.51,18.72,28.95,45.83,28.64,74.4-.55,49.99-31.59,100.43-99.69,100.43ZM429.65,59.93c-16.23,0-29.44,5.12-39.28,15.2-10.89,11.17-16.87,27.9-16.41,45.9.35,13.59,5.42,57.92,55.69,57.92,40.12,0,54.93-30.04,55.42-58.15.31-18.22-5.73-34.99-16.55-46-9.71-9.87-22.79-14.88-38.87-14.88Z"/>
  <polygon class="cls-1" points="711.09 21.73 711.09 216.43 681.67 216.43 592.38 101.66 592.38 216.63 547.59 216.63 547.59 22 583.22 22 666.3 127.12 666.3 21.73 711.09 21.73"/>
  <rect class="cls-1" x="732.51" y="98.23" width="144.52" height="42.43" rx="11.54" ry="11.54"/>
  <path class="cls-1" d="M989.42,220.85c-69.05,0-99.96-50.33-99.96-100.22,0-26.72,8.79-51.63,24.75-70.13,18.17-21.06,44.18-32.2,75.2-32.2,28.54,0,53.11,9.59,71.05,27.72,18.51,18.72,28.95,45.83,28.64,74.4-.55,49.99-31.59,100.43-99.69,100.43ZM989.42,59.93c-16.23,0-29.44,5.11-39.28,15.2-10.89,11.17-16.87,27.9-16.41,45.9.36,13.59,5.42,57.92,55.69,57.92,40.12,0,54.93-30.04,55.42-58.15.31-18.22-5.72-34.98-16.55-46-9.71-9.87-22.79-14.88-38.87-14.88Z"/>
  <polygon class="cls-1" points="1270.86 21.73 1270.86 216.63 1241.59 216.63 1152.15 101.66 1152.15 216.63 1107.35 216.63 1107.35 22 1142.99 22 1226.07 127.12 1226.07 21.73 1270.86 21.73"/>
  <polygon class="cls-1" points="1292.28 216.63 1292.28 22 1440.48 22 1440.48 65.74 1336.81 65.74 1336.81 98.24 1436.79 98.24 1436.79 140.66 1336.81 140.66 1336.81 172.36 1440.48 172.36 1440.48 216.63 1292.28 216.63"/>
  <path class="cls-1" d="M962.74,118.33c0-9.29-.24-18.6.07-27.88.33-9.86,7.17-13.79,15.77-8.95,16.42,9.23,32.73,18.66,48.94,28.26,8.53,5.05,8.52,12.91-.03,17.98-16.2,9.61-32.51,19.05-48.93,28.29-8.57,4.83-15.47.83-15.76-9.02-.29-9.55-.06-19.12-.06-28.68Z"/>
  <path class="cls-1" d="M744.05,22c-6.37,0-11.54,5.18-11.54,11.54v20.64c0,6.36,5.18,11.54,11.54,11.54h86.94V22h-86.94Z"/>
  <path class="cls-1" d="M869.17,22h-32.2v43.73h32.2c6.37,0,11.54-5.18,11.54-11.54v-20.64c0-6.36-5.18-11.54-11.54-11.54Z"/>
  <path class="cls-1" d="M744.05,170.38c-6.37,0-11.54,5.18-11.54,11.54v21.17c0,6.36,5.18,11.54,11.54,11.54h60.02v-44.25h-60.02Z"/>
  <path class="cls-1" d="M869.17,170.38h-59.13v44.25h59.13c6.37,0,11.54-5.18,11.54-11.54v-21.17c0-6.36-5.18-11.54-11.54-11.54Z"/>
  <polygon class="cls-1" points="785.49 0 765 20.5 765 224.08 754.19 224.08 754.19 20.5 732.54 0 785.49 0"/>
</svg>